<svg xmlns="http://www.w3.org/2000/svg" viewBox="0 0 808.08 622.6"><defs><style>.cls-1{fill:#4d7298;}</style></defs><title>Asset 1</title><g id="Layer_2" data-name="Layer 2"><g id="Layer_8" data-name="Layer 8"><path class="cls-1" d="M786.75,18.65a3.06,3.06,0,0,1-.42-.7c-1.68-2.8-6.15-9.51-11.47-17.48C774-.79,742.49.89,721.59.89H86.5C65.59.89,34.06-.79,33.22.47c-5.31,8-9.79,14.68-11.47,17.48a3.06,3.06,0,0,1-.42.7c-32,57.61-24.75,129.34.42,193.81a376.65,376.65,0,0,0,24.19,50.76,381,381,0,0,0,26.71,41.25c3.5,4.76,7,9.23,10.63,13.57,65,79.14,156.34,122.77,255.2,147.1a52.79,52.79,0,0,1,38.88,40.69c8.39,41.4,22.93,100.27,26.14,113.83v2.1a2.9,2.9,0,0,1,.28.84s.14-.84.14-1.12a.76.76,0,0,1,.08.2V622s0-.1,0-.16a1.24,1.24,0,0,1,0,.16v-.31a1.38,1.38,0,0,1,.08-.2c0,.28.14,1.12.14,1.12a2.9,2.9,0,0,1,.28-.84v-2.1c3.21-13.56,17.76-72.43,26.15-113.83a52.78,52.78,0,0,1,38.87-40.69c98.87-24.33,190.18-68,255.2-147.1,3.64-4.34,7.13-8.81,10.63-13.57a379.51,379.51,0,0,0,26.71-41.25,375.44,375.44,0,0,0,24.19-50.76C811.5,148,818.77,76.26,786.75,18.65Z"/></g></g></svg>